<svg id="Layer_1" data-name="Layer 1" xmlns="http://www.w3.org/2000/svg" viewBox="0 0 687.74 75.64">
<path d="M70.63,69c-.09.93-1.21,5.22-6.61,5.22-7,0-11-4.57-12.95-12.11-1.12-4.19-1.21-12.67-.84-21.8a82.56,82.56,0,0,0-15.46-.18c-.09,2.61-.18,5.21-.28,7.64-.93,15.55-5.68,25.42-19.65,25.42C6.37,73.14-.53,68.86,0,58.71S11.3,42.13,22.29,39.05c.28-17.69.65-26.45-1-30.64C20.89,7.48,12.7,12,10.09,19.5c-1,3.07-.93,6.33,1,8.75,1.3,1.49,2.88,4.28-1.59,3.91-4-.28-9.68-8.66-4.19-17.88a18.79,18.79,0,0,1,14.81-9.5c1.49-.19,11-.19,13.69,7.64,2.33,7.08,1.3,16.76,1,24.4a85.31,85.31,0,0,1,15.47-.09c.74-15.28,2.42-31,2.42-31.3a.7.7,0,0,1,.56-.74c4.28-2,9.78,2.14,10.8,6.52a14.51,14.51,0,0,1,.09,3.53c-.37,7.92-3.72,41.54-3.26,49.27.19,3.92,2,6.24,3.92,6.34,1.67.18,3.53-1.31,4.37-3.26C69.61,66.34,70.91,67.55,70.63,69ZM22.2,42.41C9.72,46.23,4.5,53.68,4.5,59.73c0,6.33,4.38,8.85,8.38,8.85a7.55,7.55,0,0,0,6.71-3.36c2.14-3.25,2.33-9.49,2.52-15.45C22.11,49.77,22.2,46.78,22.2,42.41Z" transform="translate(0 -1.06)"/><path d="M136.47,40.54A2.31,2.31,0,0,1,133.4,43a37,37,0,0,0-8.11-1.49c-.28,10.71-.65,21.23-.83,26.26a56.45,56.45,0,0,1-.38,6.43,2.24,2.24,0,0,1-2.14,2c-4.66.19-7.26-4.37-8.57-8.75-2.05-6.8-1-14.25-.93-23.94a8.16,8.16,0,0,0,.09-1.4A148,148,0,0,0,97.26,46c-1.86,9.68-4.38,19.46-9.59,26.73a3,3,0,0,1-3.36.83c-.37-.18-.74-.27-1.11-.46a1.59,1.59,0,0,1-.56-2.61c4.75-4.93,7.45-13.78,9.59-23.1a51.64,51.64,0,0,1-10.06,1.4c-5.87,0-12-1.3-12.29-7.26A9.57,9.57,0,0,1,74.35,33c.93-.37,1.49.74,1.3,1.21-.65,1.68,0,2.7,1.59,3.45,4.28,1.86,15.27.74,16.76.55,1.58-8.47,3-16.57,5.12-21.79.84-2,5.31-13.13,14.35-14.16,3.07-.37,6.33.1,8.66,2.8A14.18,14.18,0,0,1,124.74,10c.93,2.71.93,14,.74,26a48.87,48.87,0,0,1,8.1,1.12A3.69,3.69,0,0,1,136.47,40.54Zm-23.66-4.28v-.47c.19-3.82.75-21.51.75-26.73a1.86,1.86,0,0,0-3.17-1.39c-4,3.16-5.59,6.61-7.08,10.33-2,5.31-3.26,12.21-4.56,19.66C102.76,37.1,107.69,36.54,112.81,36.26Z" transform="translate(0 -1.06)"/><path d="M199.24,72c-.84,2.43-3.63,4.57-8,4.66-12.11.47-19.47-9.87-24.59-20.86-.46-.93-2.23-4.94-3.26-7.92a13.24,13.24,0,0,1-1.21-1.12c-.84,12.86-2,23.38-2.89,24.41s-1.49,1.11-3.63.18c-5.68-2.51-4.84-6.61-4.84-9.78s.19-8.47.46-14.62c-.55-9.78-2.6-24-6.79-31a31.41,31.41,0,0,1-7.27,1.58c-4.47,0-7-2.7-7-5.4a4,4,0,0,1,.37-1.77c1-2.33,3.91-3.17,6.8-3.17a14.72,14.72,0,0,1,4.1.56,10.62,10.62,0,0,1,5.68,4.1c1.49-.47,3.07-1,4.65-1.59a14.81,14.81,0,0,0-.09-2,6.36,6.36,0,0,0-1.3-3.54,2.08,2.08,0,0,1,.83-3.08c1.68-.93,5-.93,8.85,2a3.69,3.69,0,0,1,1.49,1.86c.1.37.19.84.28,1.3a48.61,48.61,0,0,1,11.18-2.51c.46,0,.93-.09,1.3-.09C186.85,4.13,194,15.12,194,27c0,13.59-9.31,21.05-18.16,22.82,3.73,7.54,10.25,20.95,16.3,22.16a6.06,6.06,0,0,0,5.4-1.77C198.87,68.86,199.8,70.16,199.24,72Zm-61-58.11a18.65,18.65,0,0,0,4.09-.56,5.76,5.76,0,0,0-2.51-1.49,9.92,9.92,0,0,0-1.49-.19c-1.49,0-2.05.65-2.05,1.3a1,1,0,0,0,1,.94ZM152,22.29V13.63c-1,.28-2.05.65-3.07.93A41.94,41.94,0,0,1,152,22.29Zm10.43,19.19c.37.18.75.27,1.21.46.09-.09.28-.19.37-.28,1.21-.93,3.73-.56,5.87,0a4.88,4.88,0,0,1,1.59.93c5.86-1.3,12.1-7.63,12.1-20.21,0-7-3.72-13.41-12-13.41a40.39,40.39,0,0,0-9.31,1.58C163.1,18.94,163,30.58,162.45,41.48Z" transform="translate(0 -1.06)"/><path d="M238.91,5.34a3.76,3.76,0,0,1-1.12,4.56c-2,1.59-5.49,2.14-9.22,2.33v.09c1.21,6-1.12,35.49-1.58,41.36a92.71,92.71,0,0,0-.75,11.64c2.7.09,4.94-.1,6.43-.84A2.2,2.2,0,0,1,235,65c.93,1.12,1.77,4.28-1.21,5.77-3.54,1.77-10.53.94-15.28.66-2.51-.19-8-.38-10.06,1.3a2.66,2.66,0,0,1-4.09-2.52c.37-3.53,2.14-6.24,10.61-5.68a27.38,27.38,0,0,1,2.8.19c-.1-.28-.19-.56-.28-.75-1.21-3.44-1.86-6.7-1.68-13.31.65-16,1.21-20.49,1.86-37.54v-1a29.23,29.23,0,0,0-6.79.18,6.33,6.33,0,0,0-2.8,1.21c-2.14,1.49-5.77-1.86-4-4.84s4.47-3.72,7.54-3.63c.19,0,2.33.09,5,.09a1.39,1.39,0,0,1,.19-.46c.93-1.59,3-1.49,4.56-.93a10.86,10.86,0,0,1,2.79,1.39,34.47,34.47,0,0,0,5.68-.28,13.18,13.18,0,0,0,4.66-1.67,2.26,2.26,0,0,1,2.8.37A15.71,15.71,0,0,1,238.91,5.34Z" transform="translate(0 -1.06)"/><path d="M323.47,25.55c0,11.83-6.14,24.31-21.05,24.59-4.37,0-8.66-.66-11.55-3.36C290,59.54,288.82,70.16,288,71.19s-1.49,1.11-3.64.18c-5.68-2.51-4.84-6.61-4.84-9.78s.19-8.47.47-14.62c-.47-9.69-2.52-23.56-6.62-30.64A29.56,29.56,0,0,1,266,17.54c-5.5,0-8-3.91-6.71-7.17,1.49-3.54,7.27-3.64,11-2.61a10.92,10.92,0,0,1,5.68,4.1c1.49-.47,3-1.12,4.66-1.77-.09-.65-.09-1.31-.19-1.86a7.11,7.11,0,0,0-1.21-3.54A2.06,2.06,0,0,1,280,1.61c1.67-.93,5-.93,8.84,2a3.66,3.66,0,0,1,1.5,1.86c.09.19.09.47.18.75,4.94-1.77,9.59-3.08,13.41-2.7A22.16,22.16,0,0,1,323.47,25.55Zm-52.34-12.2a6.42,6.42,0,0,0-2.52-1.49c-4.28-.93-4.19,2.05-2.6,2.05A13.14,13.14,0,0,0,271.13,13.35Zm9.59.56c-.93.28-2,.65-2.88,1a38,38,0,0,1,2.88,7.36ZM299.91,7.2c-2.05.19-5.22,1.3-8.94,2.7.84,8.57.74,20.77.18,32,1,2.33,3.08,2.61,5.13,2.33,6-.84,14.71-5.22,16.58-18.63C314.16,15.77,310,6.08,299.91,7.2Z" transform="translate(0 -1.06)"/><path d="M393.5,72c-.84,2.43-3.63,4.57-8,4.66-12.1.47-19.46-9.87-24.58-20.86-.47-.93-2.24-4.94-3.26-7.92a12,12,0,0,1-1.21-1.12c-.84,12.86-2.06,23.38-2.89,24.41s-1.49,1.11-3.64.18c-5.68-2.51-4.84-6.61-4.84-9.78s.19-8.47.47-14.62c-.56-9.78-2.61-24-6.8-31a31.31,31.31,0,0,1-7.27,1.58c-4.47,0-7-2.7-7-5.4a4,4,0,0,1,.37-1.77c1-2.33,3.91-3.17,6.8-3.17a14.61,14.61,0,0,1,4.1.56,10.58,10.58,0,0,1,5.68,4.1c1.49-.47,3.07-1,4.66-1.59a13.34,13.34,0,0,0-.1-2,6.36,6.36,0,0,0-1.3-3.54,2.08,2.08,0,0,1,.84-3.08c1.67-.93,5-.93,8.84,2a3.66,3.66,0,0,1,1.5,1.86c.09.37.18.84.27,1.3a48.61,48.61,0,0,1,11.18-2.51c.47,0,.93-.09,1.31-.09,12.48,0,19.65,11,19.65,22.82,0,13.59-9.32,21.05-18.17,22.82,3.73,7.54,10.25,20.95,16.3,22.16a6.08,6.08,0,0,0,5.41-1.77C393.13,68.86,394.06,70.16,393.5,72Zm-61-58.11a18.73,18.73,0,0,0,4.1-.56,5.85,5.85,0,0,0-2.52-1.49,9.92,9.92,0,0,0-1.49-.19c-1.49,0-2,.65-2,1.3a1,1,0,0,0,1,.94Zm13.78,8.38V13.63c-1,.28-2,.65-3.07.93A41.94,41.94,0,0,1,346.28,22.29Zm10.43,19.19c.38.18.75.27,1.21.46.1-.09.28-.19.38-.28,1.21-.93,3.72-.56,5.86,0a4.88,4.88,0,0,1,1.59.93c5.87-1.3,12.11-7.63,12.11-20.21,0-7-3.73-13.41-12-13.41a40.48,40.48,0,0,0-9.31,1.58C357.37,18.94,357.27,30.58,356.71,41.48Z" transform="translate(0 -1.06)"/><path d="M457.3,40.54A2.31,2.31,0,0,1,454.22,43a36.76,36.76,0,0,0-8.1-1.49c-.28,10.71-.65,21.23-.84,26.26a54.9,54.9,0,0,1-.37,6.43,2.24,2.24,0,0,1-2.14,2c-4.66.19-7.27-4.37-8.57-8.75-2.05-6.8-1-14.25-.93-23.94a8.16,8.16,0,0,0,.09-1.4A147.37,147.37,0,0,0,418.09,46c-1.87,9.68-4.38,19.46-9.6,26.73a3,3,0,0,1-3.35.83c-.37-.18-.75-.27-1.12-.46a1.6,1.6,0,0,1-.56-2.61c4.75-4.93,7.45-13.78,9.6-23.1A51.86,51.86,0,0,1,403,48.74c-5.87,0-12-1.3-12.3-7.26A9.57,9.57,0,0,1,395.17,33c.94-.37,1.49.74,1.31,1.21-.66,1.68,0,2.7,1.58,3.45,4.29,1.86,15.28.74,16.77.55,1.58-8.47,3-16.57,5.12-21.79.84-2,5.31-13.13,14.34-14.16,3.07-.37,6.33.1,8.66,2.8A14,14,0,0,1,445.56,10c.93,2.71.93,14,.75,26a48.87,48.87,0,0,1,8.1,1.12A3.69,3.69,0,0,1,457.3,40.54Zm-23.66-4.28v-.47c.19-3.82.74-21.51.74-26.73a1.86,1.86,0,0,0-3.16-1.39c-4,3.16-5.59,6.61-7.08,10.33-2.05,5.31-3.26,12.21-4.56,19.66C423.58,37.1,428.52,36.54,433.64,36.26Z" transform="translate(0 -1.06)"/><path d="M492.22,57.12c0,8.29-6.71,16.3-20,16.3-13.69,0-19.18-7.08-19.18-14,0-8.85,10.06-15.18,12.94-15.18.93,0,2.42.56,2.42,1.4a1.89,1.89,0,0,1-.74,1.39c-4.19,3.26-7.64,6.9-7.64,13A8,8,0,0,0,467.26,68c7.35,0,12.85-4.84,12.85-11.74,0-14.71-24.12-18.62-24.12-34.55,0-8.2,8.29-18.07,19.46-18.07,8.76,0,16.77,3.73,16.77,11.64,0,6.43-6.71,12.76-9.87,12.76-1.31,0-4.1-.74-4.1-1.86,0-.28.28-.56.74-.84,3.54-1.86,6.52-6.89,6.52-10.43,0-3.07-1.67-6.52-4.19-6.52-4.47,0-13.5,4.94-13.5,14.06C467.82,38.59,492.22,37,492.22,57.12Z" transform="translate(0 -1.06)"/><path d="M560.86,40.54A2.31,2.31,0,0,1,557.78,43a36.76,36.76,0,0,0-8.1-1.49c-.28,10.71-.65,21.23-.84,26.26a54.9,54.9,0,0,1-.37,6.43,2.24,2.24,0,0,1-2.14,2c-4.66.19-7.27-4.37-8.57-8.75-2-6.8-1-14.25-.93-23.94a8.16,8.16,0,0,0,.09-1.4A147.37,147.37,0,0,0,521.65,46c-1.87,9.68-4.38,19.46-9.6,26.73a3,3,0,0,1-3.35.83c-.37-.18-.75-.27-1.12-.46a1.6,1.6,0,0,1-.56-2.61c4.75-4.93,7.45-13.78,9.6-23.1a51.86,51.86,0,0,1-10.06,1.4c-5.87,0-12-1.3-12.3-7.26A9.57,9.57,0,0,1,498.73,33c.94-.37,1.49.74,1.31,1.21-.65,1.68,0,2.7,1.58,3.45,4.29,1.86,15.28.74,16.77.55,1.58-8.47,3-16.57,5.12-21.79.84-2,5.31-13.13,14.34-14.16,3.07-.37,6.34.1,8.66,2.8A14,14,0,0,1,549.12,10c.93,2.71.93,14,.75,26A48.87,48.87,0,0,1,558,37.1,3.69,3.69,0,0,1,560.86,40.54ZM537.2,36.26v-.47c.19-3.82.74-21.51.74-26.73a1.86,1.86,0,0,0-3.16-1.39c-4,3.16-5.59,6.61-7.08,10.33-2.05,5.31-3.26,12.21-4.56,19.66C527.14,37.1,532.08,36.54,537.2,36.26Z" transform="translate(0 -1.06)"/><path d="M619.34,9.53c0,6.61-7,8-13.59,8a63.53,63.53,0,0,1-12.86-1.4c0,10.06-2.61,46-1.95,49.64.18.66.55,1.21,1.21,1.12s1.3-.28,1.49.37c.37.75.18,3-4.1,3-3.54,0-7.73-3.16-8.94-8.28-2.42-10.62,0-28.88.56-46.95v-.83a57.47,57.47,0,0,0-6-.38c-7.83,0-15.74,2.52-15.74,9.6,0,2.51,2.79,4.19,6.33,4.19a16.43,16.43,0,0,0,2-.19c.46,0,.65.19.65.47s-.38.74-.56,1a10.75,10.75,0,0,1-5,1.12c-4.47,0-7.82-4.19-7.82-9.5,0-7.45,5.68-15.27,21.14-15.27,10.62,0,14.71,2.42,23.84,2.42,15.28,0,12.85-4.19,14.81-4.75C617,2.36,619.34,6.36,619.34,9.53Z" transform="translate(0 -1.06)"/><path d="M687.7,69c-.09.93-1.21,5.22-6.61,5.22-7,0-11-4.57-13-12.11-1.12-4.19-1.21-12.67-.84-21.8a82.58,82.58,0,0,0-15.46-.18c-.09,2.61-.19,5.21-.28,7.64-.93,15.55-5.68,25.42-19.65,25.42-8.48,0-15.37-4.28-14.81-14.43s11.27-16.58,22.26-19.66c.28-17.69.65-26.45-1-30.64C638,7.48,629.77,12,627.16,19.5c-1,3.07-.93,6.33,1,8.75,1.31,1.49,2.89,4.28-1.58,3.91-4-.28-9.69-8.66-4.19-17.88a18.79,18.79,0,0,1,14.81-9.5c1.49-.19,11-.19,13.69,7.64,2.33,7.08,1.3,16.76,1,24.4a85.2,85.2,0,0,1,15.46-.09c.75-15.28,2.43-31,2.43-31.3a.7.7,0,0,1,.55-.74c4.29-2,9.79,2.14,10.81,6.52a14.51,14.51,0,0,1,.09,3.53C680.9,22.66,677.55,56.28,678,64c.19,3.92,2,6.24,3.91,6.34,1.68.18,3.54-1.31,4.38-3.26C686.67,66.34,688,67.55,687.7,69ZM639.27,42.41c-12.48,3.82-17.7,11.27-17.7,17.32,0,6.33,4.38,8.85,8.38,8.85a7.55,7.55,0,0,0,6.71-3.36c2.14-3.25,2.33-9.49,2.51-15.45C639.17,49.77,639.27,46.78,639.27,42.41Z" transform="translate(0 -1.06)"/></svg>